<?xml version="1.0" standalone="no"?>
<!DOCTYPE svg PUBLIC "-//W3C//DTD SVG 20010904//EN"
 "http://www.w3.org/TR/2001/REC-SVG-20010904/DTD/svg10.dtd">
<svg version="1.0" xmlns="http://www.w3.org/2000/svg"
 width="1000.000000pt" height="824.000000pt" viewBox="0 0 1000.000000 824.000000"
 preserveAspectRatio="xMidYMid meet">
<metadata>
Created by potrace 1.15, written by Peter Selinger 2001-2017
</metadata>
<g transform="translate(0.000000,824.000000) scale(0.100000,-0.100000)"
fill="#000000" stroke="none">
<path d="M5255 6493 c-230 -28 -462 -105 -639 -213 -193 -117 -329 -256 -364
-372 l-17 -58 -60 0 c-78 0 -282 -25 -415 -51 -867 -167 -1546 -672 -1940
-1441 l-75 -146 -50 40 c-28 23 -83 57 -124 76 -66 32 -84 36 -155 36 -69 1
-89 -3 -138 -27 -68 -34 -129 -92 -160 -155 -20 -41 -23 -61 -23 -167 1 -111
3 -126 33 -200 52 -130 125 -239 231 -345 l96 -95 -23 -25 c-13 -14 -34 -45
-47 -70 -74 -147 -43 -306 83 -421 83 -76 146 -102 309 -129 78 -13 102 -26
240 -133 94 -72 320 -206 498 -295 369 -185 725 -296 1160 -364 164 -25 631
-36 808 -19 410 40 834 163 1200 348 l79 39 95 -63 c117 -77 277 -159 421
-217 187 -75 268 -82 353 -27 85 54 147 184 156 328 13 200 -93 341 -307 408
-30 9 -60 18 -66 20 -7 2 34 50 90 107 56 57 123 127 148 157 l46 54 50 -100
c154 -305 381 -540 644 -663 218 -102 485 -118 640 -39 63 32 133 110 159 176
29 78 36 197 15 286 -28 121 -83 214 -241 412 -149 187 -152 192 -134 223 8
15 61 59 117 98 504 351 856 832 993 1359 25 99 32 146 36 270 6 175 -3 234
-53 334 -60 121 -187 215 -323 241 -77 14 -237 12 -323 -4 -229 -44 -492 -185
-758 -407 -286 -238 -659 -623 -825 -852 l-21 -29 -68 114 c-100 164 -224 350
-310 462 l-74 98 56 76 c72 101 137 238 169 359 36 139 38 337 4 468 -37 143
-83 228 -171 316 -168 168 -381 230 -785 227 -115 0 -223 -3 -240 -5z m466
-167 c69 -24 126 -64 143 -101 28 -59 8 -113 -77 -202 -25 -26 -36 -46 -32
-54 5 -7 4 -10 -2 -6 -6 4 -21 -5 -33 -18 -18 -19 -6 -15 56 20 103 59 226
107 289 113 44 4 55 1 82 -22 45 -38 64 -96 66 -196 1 -88 -12 -129 -54 -175
-18 -20 -18 -21 31 -38 75 -27 101 -98 66 -181 -16 -39 -75 -108 -86 -101 -4
3 -21 -2 -36 -10 -55 -28 -52 -15 11 48 46 46 65 74 70 99 21 111 -71 125
-275 43 -50 -21 -93 -35 -96 -32 -10 9 95 78 178 116 121 56 168 113 168 204
0 50 -31 165 -51 192 -38 48 -142 28 -321 -62 -49 -24 -88 -45 -88 -48 0 -2
12 1 26 7 29 14 36 7 65 -69 36 -91 40 -199 12 -307 -23 -85 -33 -88 -116 -34
-194 126 -510 240 -826 298 -58 11 -82 18 -53 15 31 -2 50 0 47 5 -9 14 29 89
72 148 44 58 143 141 144 120 0 -7 11 16 24 52 20 59 21 66 7 78 -9 6 -21 12
-26 11 -6 0 -5 -3 2 -6 27 -11 9 -20 -65 -32 -98 -17 -215 -58 -288 -102 -31
-19 -96 -71 -143 -116 -48 -45 -88 -80 -91 -77 -8 7 21 88 47 132 37 65 117
138 186 172 81 40 223 72 319 74 75 1 80 0 103 -28 27 -30 26 -62 -2 -117 -7
-14 19 6 59 46 141 141 330 195 488 141z m-1036 -635 c214 -38 428 -108 614
-199 53 -26 102 -46 108 -45 7 0 11 -3 8 -7 -3 -5 4 -11 15 -15 11 -3 20 -11
20 -16 0 -12 -2 -12 -61 11 -89 35 -349 107 -484 134 -204 40 -344 56 -565 63
-319 9 -625 -23 -924 -97 -66 -16 -121 -28 -123 -26 -7 7 169 81 280 117 117
39 299 80 432 98 39 5 180 8 315 7 196 -3 269 -8 365 -25z m1098 -322 c115
-86 249 -215 355 -342 70 -82 85 -106 60 -91 -7 4 -10 4 -6 0 3 -4 10 -8 15
-8 12 0 33 -19 33 -30 0 -5 -4 -6 -10 -3 -16 10 -11 -1 7 -16 15 -12 16 -12 8
1 -8 13 -7 13 8 1 19 -15 23 -36 5 -25 -7 4 -8 3 -4 -5 4 -6 11 -9 15 -7 4 3
18 -8 29 -24 25 -33 28 -45 10 -34 -8 4 -10 3 -5 -2 5 -5 14 -9 20 -9 7 0 11
-8 11 -17 -1 -10 3 -16 10 -15 6 1 10 -6 10 -15 -1 -10 3 -16 8 -15 6 1 13 -4
16 -12 3 -9 0 -11 -9 -6 -8 5 -11 4 -6 -1 5 -5 14 -9 20 -9 5 0 12 -6 15 -14
3 -9 0 -11 -9 -6 -8 5 -11 4 -6 -1 5 -5 14 -9 20 -9 5 0 12 -6 15 -14 3 -9 0
-11 -8 -6 -9 5 -11 4 -6 -4 4 -6 11 -9 16 -6 4 3 63 -85 129 -196 67 -110 117
-198 112 -195 -5 3 -53 79 -106 168 -107 178 -129 209 -93 133 12 -27 25 -52
28 -55 3 -3 14 -32 24 -65 11 -33 23 -64 27 -70 4 -5 11 -30 17 -55 5 -25 13
-54 17 -65 3 -11 -20 30 -52 90 -102 191 -283 457 -423 620 -123 143 -235 246
-390 358 -41 29 81 -38 176 -98 89 -55 284 -217 284 -235 0 -6 5 -10 11 -10
16 0 -128 165 -232 265 -104 100 -209 181 -314 243 -102 60 -110 68 -27 25 41
-21 120 -72 175 -114z m2832 127 c81 -34 145 -122 145 -199 0 -164 -95 -242
-600 -492 -96 -47 -176 -88 -178 -90 -2 -2 38 10 90 27 145 46 262 68 398 75
120 5 126 4 154 -18 26 -21 28 -26 23 -73 -6 -63 -79 -283 -115 -350 -64 -117
-187 -177 -527 -255 l-80 -18 80 -7 c163 -15 225 -49 225 -123 0 -49 -30 -101
-96 -163 -117 -111 -287 -186 -450 -197 l-84 -6 28 -17 c43 -27 72 -69 72
-105 0 -39 -69 -137 -131 -185 -45 -36 -48 -46 -16 -56 49 -15 149 -88 210
-154 110 -116 181 -271 194 -425 5 -69 4 -74 -20 -99 -14 -14 -35 -26 -45 -26
-39 0 -198 52 -267 86 -61 31 -91 52 -200 136 -18 15 -14 1 23 -72 45 -87 54
-133 41 -204 -3 -16 11 -26 78 -53 46 -19 114 -42 153 -52 38 -9 73 -20 77
-24 3 -4 -36 -7 -89 -7 -224 0 -453 111 -594 288 -57 72 -129 217 -148 302
-16 68 -22 221 -8 204 5 -5 16 -35 26 -67 64 -212 222 -430 395 -545 57 -38
66 -41 74 -26 26 45 -15 146 -146 363 -81 134 -127 231 -127 269 0 9 14 -9 30
-41 76 -150 227 -308 371 -390 80 -45 247 -107 289 -107 17 0 20 7 20 48 0 70
-25 156 -72 252 -62 124 -172 233 -295 291 l-91 43 92 87 c50 48 100 103 111
122 19 36 19 36 0 58 -11 12 -122 73 -247 135 -126 63 -228 116 -228 118 0 2
39 -7 88 -20 48 -14 114 -31 147 -39 33 -7 76 -18 95 -24 51 -16 215 -13 290
5 147 34 336 157 375 243 23 51 15 70 -37 88 -59 19 -315 36 -502 31 -96 -2
-173 -2 -172 0 11 10 251 70 433 107 507 105 577 141 649 332 27 72 84 250 84
264 0 4 -7 15 -16 23 -33 33 -289 13 -489 -39 -125 -33 -313 -97 -470 -161
-71 -29 -130 -52 -132 -50 -3 3 61 39 352 199 281 154 610 343 676 388 139 94
177 205 95 277 -72 63 -167 67 -329 11 -205 -70 -379 -159 -582 -297 -174
-119 -288 -214 -465 -392 -144 -144 -196 -202 -308 -345 l-24 -30 21 39 c32
57 192 264 286 369 246 276 504 479 795 626 280 143 474 187 595 137z m-3319
-63 c11 -7 23 -11 26 -8 2 3 31 -4 63 -15 32 -11 60 -18 62 -16 2 2 41 -10 86
-26 45 -17 90 -31 99 -31 9 -1 16 -6 15 -12 -1 -5 6 -9 15 -9 10 1 16 -2 15
-6 -1 -4 23 -25 53 -45 134 -92 280 -231 406 -385 136 -168 322 -453 405 -622
18 -37 37 -64 42 -61 6 3 7 2 4 -4 -4 -5 9 -53 28 -105 53 -149 68 -249 62
-408 -7 -186 -49 -326 -148 -488 -22 -35 -36 -68 -33 -73 3 -5 1 -8 -5 -7 -5
2 -35 -27 -65 -64 -31 -38 -60 -68 -65 -68 -4 0 -23 -21 -41 -47 -19 -27 -36
-50 -39 -53 -4 -3 -22 -25 -42 -50 -47 -57 -131 -142 -189 -189 -25 -20 -54
-44 -64 -53 -11 -10 -23 -18 -27 -18 -4 0 -14 -6 -21 -13 -20 -19 -98 -69
-153 -98 -28 -14 -60 -31 -70 -37 -23 -13 -95 -43 -145 -61 -19 -7 -44 -17
-55 -22 -17 -7 -69 -20 -220 -55 -11 -2 25 18 80 46 123 62 109 58 -60 -16
-371 -162 -753 -246 -1040 -230 -111 6 -277 32 -305 46 -20 12 -2 15 235 40
379 40 812 111 945 154 60 20 21 14 -179 -29 -143 -30 -167 -33 -190 -21 -14
7 -51 16 -81 20 -55 7 -147 30 -185 46 -11 4 -36 14 -55 21 -19 6 -63 25 -98
41 -35 15 -67 28 -72 28 -5 0 -10 3 -12 8 -1 4 -25 18 -53 31 -27 14 -52 28
-55 31 -3 4 -30 22 -60 41 -30 18 -59 38 -65 44 -5 5 -11 48 -13 95 -3 129
-19 189 -57 227 -18 18 -42 33 -54 33 -29 0 -88 -55 -102 -95 l-13 -34 -26 31
-27 30 -72 -56 c-40 -31 -76 -56 -79 -56 -7 0 -6 1 67 58 170 131 302 379 362
681 12 61 26 108 30 106 4 -3 14 16 23 43 78 233 53 498 -61 650 -26 35 -56
44 -47 15 3 -10 -26 43 -65 117 -40 74 -100 175 -136 224 -35 50 -61 94 -58
100 3 5 2 6 -4 3 -5 -3 -47 33 -94 81 -81 84 -65 75 33 -17 29 -27 51 -41 56
-36 5 6 28 35 52 65 46 58 206 220 254 257 15 11 44 24 63 28 24 4 54 25 94
63 32 31 65 58 71 60 7 2 15 7 18 11 3 4 32 18 65 31 33 13 65 26 70 30 32 23
298 99 400 114 17 2 131 4 255 3 166 -1 230 -4 246 -14z m-2347 -127 c-2 -2
-49 -37 -104 -79 -55 -41 -144 -119 -199 -173 -179 -179 -286 -333 -415 -599
-74 -151 -155 -269 -170 -248 -7 10 -28 15 -59 15 -23 0 -24 2 -17 56 9 74 40
173 77 247 108 214 362 483 604 639 81 51 311 167 283 142z m687 -549 c25 -31
42 -62 39 -67 -4 -6 -1 -9 7 -8 7 2 12 -5 12 -14 -1 -10 2 -16 6 -13 21 13
168 -278 219 -430 44 -133 61 -247 61 -414 0 -258 -59 -531 -155 -721 -41 -81
-76 -130 -88 -123 -6 3 -7 1 -3 -6 15 -23 -163 -201 -200 -201 -5 0 3 8 17 18
52 35 110 87 135 119 26 34 25 42 -10 87 -14 17 -17 17 -62 -20 -50 -40 -50
-36 -2 31 l28 41 -27 54 c-16 30 -31 57 -35 58 -5 2 -8 8 -8 13 0 5 -11 32
-24 59 -14 28 -34 83 -46 123 -12 40 -25 81 -30 92 -23 53 -49 234 -59 400 -6
101 -5 114 17 164 33 77 52 166 52 249 0 67 22 159 50 210 5 9 28 58 51 107
23 50 45 92 49 95 4 3 12 15 19 27 10 20 7 29 -27 75 -21 29 -47 59 -56 67 -9
8 -22 24 -27 35 -12 24 32 -24 97 -107z m-573 -12 c86 -22 149 -58 220 -125
108 -100 157 -220 157 -381 0 -204 -76 -419 -201 -569 -63 -76 -84 -82 -148
-41 -65 42 -159 79 -256 101 -44 10 -70 19 -58 19 89 4 208 92 254 189 35 74
39 206 9 297 -65 196 -293 274 -465 161 -234 -154 -189 -541 73 -631 33 -12
30 -13 -59 -20 -92 -7 -94 -6 -115 18 -29 34 -62 135 -74 229 -18 148 22 341
97 466 50 82 177 228 217 249 98 52 238 67 349 38z m-115 -490 c19 -16 33 -21
40 -15 9 7 9 7 2 -2 -5 -7 -10 -22 -10 -34 0 -37 -42 -77 -80 -77 -39 0 -80
40 -80 79 0 32 42 74 74 74 13 0 38 -11 54 -25z m-1423 -29 c28 -14 64 -37 81
-53 39 -34 107 -124 100 -131 -3 -2 -27 10 -54 27 -57 37 -100 40 -165 12 -68
-29 -122 -83 -137 -136 -16 -56 -9 -92 34 -182 66 -137 254 -297 423 -361 40
-15 73 -31 73 -36 0 -5 -34 -6 -78 -3 -84 7 -182 37 -253 79 -110 66 -227 202
-249 292 -6 23 -29 81 -52 130 -65 140 -65 236 0 308 72 80 180 101 277 54z
m20 -1020 c13 -13 31 -50 40 -82 21 -77 44 -130 64 -148 9 -8 43 -24 76 -37
l59 -22 -43 -39 c-48 -42 -55 -44 -113 -26 -95 28 -188 160 -188 265 0 47 4
59 29 84 36 35 45 36 76 5z m5154 -3 c-283 -371 -678 -686 -1123 -898 -130
-62 -374 -158 -431 -170 -16 -3 24 14 90 38 390 143 698 316 1002 563 100 81
303 285 390 392 41 50 78 92 80 92 3 0 -1 -8 -8 -17z m-405 -545 c-16 -17 -24
-28 -18 -25 7 4 17 0 24 -8 7 -8 19 -15 28 -15 8 0 12 -3 9 -6 -3 -4 5 -15 18
-26 14 -11 25 -26 25 -34 0 -8 4 -14 8 -14 9 0 27 -47 37 -97 6 -29 4 -32 -12
-27 -10 3 -7 -1 7 -9 14 -8 52 -18 84 -22 33 -4 65 -9 73 -12 29 -11 7 109
-29 160 -25 35 -73 59 -165 82 -40 11 -73 22 -73 26 0 10 56 19 119 19 70 0
149 -35 183 -81 34 -45 49 -94 51 -169 1 -57 -1 -64 -26 -86 -20 -17 -35 -22
-53 -18 -23 6 -24 5 -14 -22 6 -16 8 -44 5 -63 -10 -52 -52 -128 -81 -147 -31
-21 -67 -12 -188 49 -47 24 -81 37 -75 31 7 -8 1 -14 -18 -19 l-28 -7 45 -23
c77 -41 34 -27 -53 16 -80 40 -217 119 -217 124 0 2 6 2 14 1 20 -2 125 147
181 254 25 49 45 92 44 96 -1 6 111 102 120 103 3 1 -8 -13 -25 -31z"/>
<path d="M5460 6282 c-92 -31 -138 -60 -213 -134 -44 -43 -50 -51 -17 -22 l55
50 106 -7 c95 -6 114 -11 180 -43 41 -21 87 -48 103 -62 l28 -25 -22 -27 c-13
-15 11 8 53 50 112 113 114 157 9 206 -75 35 -199 41 -282 14z"/>
<path d="M4500 5323 c-145 -51 -318 -240 -376 -413 -27 -80 -25 -209 4 -274
31 -69 64 -109 129 -158 l55 -42 20 24 c19 24 25 25 109 22 76 -3 94 -1 122
17 27 16 49 20 106 19 43 0 77 4 83 10 16 16 128 15 207 -2 l63 -13 34 71 c70
150 85 363 32 477 -50 109 -160 197 -310 250 -96 33 -204 38 -278 12z"/>
<path d="M5355 5080 c-28 -11 -72 -60 -84 -93 -16 -41 -13 -113 4 -147 25 -48
73 -77 140 -85 34 -3 71 -2 86 3 52 20 74 116 44 190 -46 109 -121 161 -190
132z"/>
<path d="M5735 4942 c-6 -4 -23 -25 -39 -46 -35 -46 -28 -66 28 -80 81 -21
128 31 87 98 -22 35 -52 46 -76 28z"/>
<path d="M3865 4855 c-44 -44 -25 -144 41 -209 58 -57 96 -52 114 15 19 69
-21 196 -66 213 -32 12 -66 5 -89 -19z"/>
<path d="M5630 4721 c-80 -26 -127 -72 -116 -114 8 -34 86 -138 97 -131 15 9
76 -5 92 -21 12 -12 19 -10 50 11 52 35 65 84 42 159 -25 79 -42 96 -95 101
-25 2 -56 0 -70 -5z"/>
<path d="M5219 4567 c-48 -33 -92 -123 -97 -202 l-4 -62 92 -2 c58 -1 104 -8
121 -17 15 -7 45 -14 66 -14 21 0 47 -7 57 -15 45 -34 66 -11 65 70 -1 123
-121 265 -224 265 -27 0 -54 -8 -76 -23z"/>
<path d="M5860 4440 c-124 -45 -209 -132 -244 -249 -24 -82 -19 -205 8 -195
18 7 100 -13 104 -25 2 -6 17 -11 33 -11 19 0 29 -5 29 -15 0 -12 14 -15 65
-15 51 0 65 -3 65 -15 0 -10 10 -15 27 -15 39 0 22 -10 -21 -12 -20 -1 -36 -5
-36 -10 0 -4 0 -10 0 -13 0 -3 3 -4 8 -2 4 1 6 7 4 12 -1 6 5 1 13 -9 15 -20
15 -20 16 0 0 15 2 16 7 4 8 -17 39 -20 61 -6 10 7 12 6 6 -4 -6 -10 -4 -11 6
-4 8 5 26 9 40 10 41 2 130 48 168 85 51 51 64 91 63 193 -2 155 -47 246 -146
292 -67 31 -194 33 -276 4z"/>
<path d="M4193 4284 c-14 -23 -15 -33 -5 -81 6 -31 22 -70 36 -87 21 -28 29
-32 63 -28 21 2 44 9 51 15 10 8 16 7 22 -2 13 -22 33 56 27 107 -7 68 -48
102 -122 102 -48 0 -57 -3 -72 -26z"/>
<path d="M4510 4242 c-31 -32 -50 -86 -50 -148 l0 -42 38 8 c52 12 136 15 150
6 7 -4 12 -2 12 5 0 7 3 9 7 6 3 -4 12 1 20 11 8 9 12 11 8 5 -4 -9 3 -13 24
-13 17 0 31 5 31 11 0 5 -5 7 -12 3 -7 -5 -8 -3 -3 6 6 10 11 9 21 -4 12 -16
13 -16 17 1 3 15 6 14 15 -7 6 -14 11 -20 11 -13 2 22 -22 62 -32 56 -6 -3 -7
-1 -3 5 11 19 -40 76 -93 105 -67 37 -123 36 -161 -1z"/>
<path d="M4860 4071 c-186 -42 -364 -129 -555 -272 -93 -69 -167 -139 -148
-139 6 0 16 7 23 16 27 32 228 158 334 209 334 160 574 175 704 42 75 -77 97
-199 68 -373 -47 -274 -178 -504 -382 -670 -123 -100 -214 -124 -347 -89 -178
46 -323 188 -399 390 -17 47 -18 48 -14 13 2 -20 17 -65 31 -100 15 -34 27
-76 27 -93 -1 -87 -5 -136 -9 -131 -3 3 -5 23 -5 44 1 29 -6 46 -23 62 -22 20
-45 14 -30 -9 3 -5 1 -12 -4 -15 -12 -8 -14 -33 -15 -161 0 -87 3 -107 25
-155 31 -65 96 -133 160 -165 180 -92 468 -70 677 52 l43 25 79 -26 c139 -46
244 -28 311 53 56 68 60 136 13 218 -22 38 -39 56 -90 91 -15 10 -18 23 -16
57 3 33 0 45 -9 45 -11 0 -10 3 1 10 11 7 11 10 2 10 -7 0 -10 5 -7 10 3 6 2
10 -4 10 -6 0 -8 6 -5 14 3 8 0 17 -5 21 -6 3 -9 10 -6 15 8 12 -35 91 -46 84
-14 -8 -12 -3 31 88 62 132 91 251 97 399 4 97 2 137 -10 180 -59 201 -252
294 -497 240z"/>
<path d="M6052 3813 c-32 -16 -98 -87 -121 -131 -11 -22 -9 -27 29 -63 47 -45
109 -79 142 -79 57 0 99 62 100 146 1 57 -16 94 -55 118 -38 24 -61 26 -95 9z"/>
<path d="M5573 3765 c-34 -14 -83 -87 -83 -124 0 -33 20 -59 42 -53 10 2 18 0
18 -6 0 -15 150 -35 166 -21 56 46 24 173 -51 205 -42 17 -51 17 -92 -1z"/>
<path d="M6335 3727 c-85 -85 -76 -268 17 -364 77 -79 135 -13 145 164 10 153
-23 233 -95 233 -25 0 -43 -9 -67 -33z"/>
<path d="M5845 3414 c-56 -21 -118 -86 -152 -158 -25 -55 -28 -72 -28 -171 0
-131 20 -204 72 -264 79 -93 204 -72 327 55 143 147 185 278 127 392 -57 112
-235 187 -346 146z"/>
<path d="M6407 2314 c16 -7 -21 -75 -65 -120 -28 -29 -36 -33 -54 -23 -11 6
-18 7 -15 1 10 -15 177 -74 193 -68 22 8 56 92 52 128 -2 24 -13 39 -43 60
-22 15 -49 27 -60 27 -11 0 -15 -3 -8 -5z"/>
</g>
</svg>
