<?xml version="1.0" encoding="utf-8"?>
<!-- Generator: Adobe Illustrator 23.0.3, SVG Export Plug-In . SVG Version: 6.00 Build 0)  -->
<svg version="1.1" id="Layer_1" xmlns:sketch="http://www.bohemiancoding.com/sketch/ns"
	 xmlns="http://www.w3.org/2000/svg" xmlns:xlink="http://www.w3.org/1999/xlink" x="0px" y="0px" viewBox="0 0 376 352"
	 style="enable-background:new 0 0 376 352;" xml:space="preserve">
<style type="text/css">
	.st0{fill-rule:evenodd;clip-rule:evenodd;fill:#333333;stroke:#000000;stroke-width:5.81;}
	.st1{fill-rule:evenodd;clip-rule:evenodd;fill:#93939F;stroke:#000000;stroke-width:2.7051;}
	.st2{fill-rule:evenodd;clip-rule:evenodd;fill:#7F7F8D;}
	.st3{fill-rule:evenodd;clip-rule:evenodd;fill:#C1C1C8;}
	.st4{fill-rule:evenodd;clip-rule:evenodd;fill:#FFFFFF;stroke:#000000;stroke-width:5.4845;}
	.st5{opacity:0.3374;fill-rule:evenodd;clip-rule:evenodd;fill:#A5A5A5;enable-background:new    ;}
	.st6{fill-rule:evenodd;clip-rule:evenodd;stroke:#000000;stroke-width:3.4763;}
	.st7{fill-rule:evenodd;clip-rule:evenodd;fill:#FFFFFF;}
	.st8{fill-rule:evenodd;clip-rule:evenodd;fill:url(#SVGID_1_);stroke:#000000;stroke-width:1.3433;}
	.st9{fill-rule:evenodd;clip-rule:evenodd;fill:url(#SVGID_2_);stroke:#000000;stroke-width:1.3433;}
	.st10{fill-rule:evenodd;clip-rule:evenodd;fill:url(#SVGID_3_);stroke:#000000;stroke-width:2.6866;}
	.st11{fill-rule:evenodd;clip-rule:evenodd;}
	.st12{fill-rule:evenodd;clip-rule:evenodd;fill:url(#SVGID_4_);stroke:#000000;stroke-width:3.0452;}
	.st13{fill-rule:evenodd;clip-rule:evenodd;fill:url(#SVGID_5_);stroke:#000000;stroke-width:3.0452;}
	.st14{fill:none;stroke:#000000;stroke-width:5.3732;}
	.st15{fill-rule:evenodd;clip-rule:evenodd;fill:url(#Shape_2_);}
	.st16{fill-rule:evenodd;clip-rule:evenodd;fill:url(#SVGID_6_);}
	.st17{fill-rule:evenodd;clip-rule:evenodd;fill:#734B02;stroke:#000000;stroke-width:1.0663;}
	.st18{fill-rule:evenodd;clip-rule:evenodd;fill:#3B2906;}
	.st19{fill-rule:evenodd;clip-rule:evenodd;fill:#734B02;stroke:#000000;stroke-width:1.645;}
	.st20{fill-rule:evenodd;clip-rule:evenodd;fill:#734B02;stroke:#000000;stroke-width:1.1307;}
	.st21{opacity:0.8025;fill-rule:evenodd;clip-rule:evenodd;fill:#3B2906;enable-background:new    ;}
	.st22{fill-rule:evenodd;clip-rule:evenodd;fill:#3B2906;fill-opacity:0.507;}
	.st23{fill-rule:evenodd;clip-rule:evenodd;fill:#734B02;stroke:#000000;stroke-width:0.8479;}
	.st24{fill-rule:evenodd;clip-rule:evenodd;fill:#734B02;stroke:#000000;stroke-width:1.3064;}
</style>
<title>dirt</title>
<desc>Created with Sketch.</desc>
<g id="Page-1_1_" sketch:type="MSPage">
	<g id="mole" transform="translate(3.323440, 2.016670)" sketch:type="MSLayerGroup">
		<path id="Shape_1_" sketch:type="MSShapeGroup" class="st0" d="M204.2,24.9c-0.2,0-0.6,0-0.8,0v0c-14.6,0.2-50.2,3.3-63.3,35.1
			c-6.5-8.7,0,0-21-19.9c0,0-26.4,25.8,9.6,44.2c12.5,116-13,160.6,61,159c4.2-0.1,8.8,0,13.6,0.1h0.1l2.2,0v-0.1
			c4.8-0.1,9.4-0.2,13.6-0.1c74,1.6,48.5-43,61-159c36-18.4,9.6-44.2,9.6-44.2c-21,19.9-14.5,11.3-21,19.9
			C255.4,27.1,217.8,24.9,204.2,24.9L204.2,24.9z"/>
		<path sketch:type="MSShapeGroup" class="st1" d="M275.8,218.1c0,42.5-31.2,77-69.7,77s-69.7-34.5-69.7-77s31.2-77,69.7-77
			S275.8,175.6,275.8,218.1L275.8,218.1z"/>
		<path sketch:type="MSShapeGroup" class="st2" d="M205.1,142c37.4,1.3,67.4,35.3,67.4,76.9c0,39.3-26.7,71.8-61.2,76.4
			c24-6.7,42.2-38.1,42.2-75.9c0-41-21.4-74.5-48.5-77V142L205.1,142z"/>
		<path sketch:type="MSShapeGroup" class="st3" d="M204.9,140.9c-37.4,1.3-67.4,35.3-67.4,76.9c0,39.3,26.7,71.8,61.2,76.4
			c-24-6.7-42.2-38.1-42.2-75.9c0-41,21.4-74.5,48.5-77V140.9L204.9,140.9z"/>
		<path sketch:type="MSShapeGroup" class="st4" d="M178.9,53.4c-17.3,0-31.3,16.2-31.3,36.2s14,36.2,31.3,36.2
			c10.2,0,19.2-5.6,24.9-14.3c5.7,8.7,14.7,14.3,24.9,14.3c17.3,0,31.3-16.2,31.3-36.2s-14-36.2-31.3-36.2
			c-10.2,0-19.2,5.6-24.9,14.3C198.1,59,189.1,53.4,178.9,53.4L178.9,53.4z"/>
		<path sketch:type="MSShapeGroup" class="st5" d="M244.3,56.9c0.4,2.3,0.6,4.7,0.6,7.1c0,20.6-14.5,37.4-32.3,37.4
			c-10.5,0-19.8-5.8-25.8-14.7c-5.9,9-15.2,14.7-25.7,14.7c-5.2,0-10.1-1.4-14.5-3.9c2.9,17.2,16,30.3,31.7,30.3
			c10.5,0,19.8-5.8,25.7-14.8c5.9,9,15.2,14.8,25.7,14.8c17.8,0,32.3-16.8,32.3-37.4C262.1,75.7,254.9,63,244.3,56.9L244.3,56.9z"/>
		<g id="Group" transform="translate(73.930691, 58.411444)" sketch:type="MSShapeGroup">
			<path class="st6" d="M127.9,33.6c0,5-4.1,9.1-9.1,9.1c-5,0-9.1-4.1-9.1-9.1c0-5,4.1-9.1,9.1-9.1
				C123.8,24.6,127.9,28.6,127.9,33.6L127.9,33.6z"/>
			<path class="st7" d="M117.9,30.5c0,1.3-1.1,2.3-2.4,2.3c-1.3,0-2.3-1.1-2.3-2.3c0-1.3,1.1-2.4,2.3-2.4
				C116.8,28.1,117.9,29.2,117.9,30.5L117.9,30.5z"/>
		</g>
		<g transform="translate(97.170814, 58.411444)" sketch:type="MSShapeGroup">
			<path class="st6" d="M127.6,33.6c0,5-4.1,9.1-9.1,9.1c-5,0-9.1-4.1-9.1-9.1c0-5,4.1-9.1,9.1-9.1S127.6,28.6,127.6,33.6
				L127.6,33.6z"/>
			<path class="st7" d="M117.6,30.5c0,1.3-1.1,2.3-2.3,2.3c-1.3,0-2.3-1.1-2.3-2.3c0-1.3,1.1-2.4,2.3-2.4
				C116.6,28.1,117.6,29.2,117.6,30.5L117.6,30.5z"/>
		</g>
		
			<linearGradient id="SVGID_1_" gradientUnits="userSpaceOnUse" x1="-110.4277" y1="667.9086" x2="-109.3693" y2="667.9086" gradientTransform="matrix(22.8117 0 0 -30.8108 2631.1433 20643.748)">
			<stop  offset="0" style="stop-color:#F1AAC2"/>
			<stop  offset="1" style="stop-color:#E5638F"/>
		</linearGradient>
		<path sketch:type="MSShapeGroup" class="st8" d="M116.7,49.5c0,0-13.6,15.8,10.1,30.8c3.8-3.7,4.4-4.3,8.8-7.9v-2.9
			c-5.4-3-2.9-6.8-11.8-17.8L116.7,49.5L116.7,49.5z"/>
		
			<linearGradient id="SVGID_2_" gradientUnits="userSpaceOnUse" x1="-109.3695" y1="667.9086" x2="-110.4279" y2="667.9086" gradientTransform="matrix(22.8117 0 0 -30.8108 2793.1428 20644.4551)">
			<stop  offset="0" style="stop-color:#F1AAC2"/>
			<stop  offset="1" style="stop-color:#E5638F"/>
		</linearGradient>
		<path sketch:type="MSShapeGroup" class="st9" d="M293.7,50.2c0,0,13.6,15.8-10.1,30.8c-3.8-3.7-4.4-4.3-8.8-7.9v-2.9
			c5.4-3,2.9-6.8,11.8-17.8L293.7,50.2L293.7,50.2z"/>
		<path sketch:type="MSShapeGroup" class="st2" d="M196.1,144.2c37.4,1.3,67.4,35.3,67.4,76.9c0,39.3-26.7,71.8-61.2,76.4
			c24-6.7,42.2-38.1,42.2-75.9c0-41-21.4-74.5-48.5-77V144.2L196.1,144.2z"/>
		
			<linearGradient id="SVGID_3_" gradientUnits="userSpaceOnUse" x1="-117.5837" y1="670.4506" x2="-116.9555" y2="669.735" gradientTransform="matrix(89.7499 0 0 -61.4079 10733.7051 41300.5898)">
			<stop  offset="0" style="stop-color:#FFCEAE"/>
			<stop  offset="1" style="stop-color:#FFB280"/>
		</linearGradient>
		<path sketch:type="MSShapeGroup" class="st10" d="M204.5,115c-11.5,0-21.5,5.7-26.1,13.9c-10.5,3.3-17.3,8.4-17.3,14.1
			c0,1.6,0.5,3.1,1.5,4.6c-0.7,1.7-1.1,3.4-1.1,5.3c0,13,20,23.6,44.7,23.6s44.7-10.6,44.7-23.6c0-2.1-0.5-4.1-1.5-6
			c0.7-1.2,1-2.5,1-3.8c0-6.3-8.1-11.8-20.4-14.9C225.3,120.3,215.6,115,204.5,115L204.5,115z"/>
		<path sketch:type="MSShapeGroup" class="st11" d="M220.8,122.9c0,8.7-7.1,15.8-15.8,15.8s-15.8-7.1-15.8-15.8s7.1-15.8,15.8-15.8
			S220.8,114.2,220.8,122.9L220.8,122.9z"/>
		
			<linearGradient id="SVGID_4_" gradientUnits="userSpaceOnUse" x1="-107.7458" y1="667.3094" x2="-106.5742" y2="667.3094" gradientTransform="matrix(17.8781 0 0 -27.2428 2110.636 18349.8887)">
			<stop  offset="0" style="stop-color:#8A8A8A"/>
			<stop  offset="0.2857" style="stop-color:#F1F1F1"/>
			<stop  offset="1" style="stop-color:#FFFFFF"/>
		</linearGradient>
		<path sketch:type="MSShapeGroup" class="st12" d="M185.9,156.9h17.9v27.2h-17.9V156.9z"/>
		
			<linearGradient id="SVGID_5_" gradientUnits="userSpaceOnUse" x1="-107.7461" y1="667.3094" x2="-106.5744" y2="667.3094" gradientTransform="matrix(17.8781 0 0 -27.2428 2128.7317 18349.373)">
			<stop  offset="0" style="stop-color:#8A8A8A"/>
			<stop  offset="0.2857" style="stop-color:#F1F1F1"/>
			<stop  offset="1" style="stop-color:#FFFFFF"/>
		</linearGradient>
		<path sketch:type="MSShapeGroup" class="st13" d="M204,156.4h17.9v27.2H204V156.4z"/>
		<path sketch:type="MSShapeGroup" class="st14" d="M169,147.7c26,14.5,50.3,12.2,73.2-3.4"/>
	</g>
</g>
<g id="Page-1" sketch:type="MSPage">
	<g id="dirt" transform="translate(-0.003290, 0.157900)" sketch:type="MSLayerGroup">
		
			<linearGradient id="Shape_2_" gradientUnits="userSpaceOnUse" x1="-116.6815" y1="672.1672" x2="-115.6815" y2="672.1672" gradientTransform="matrix(371.1563 0 0 -147.5939 43307.0625 99485.6797)">
			<stop  offset="0" style="stop-color:#593D09"/>
			<stop  offset="1" style="stop-color:#7F5200"/>
		</linearGradient>
		<path id="Shape" sketch:type="MSShapeGroup" class="st15" d="M273.2,204.1c-4,0-7.7,1.3-10.6,3.4c-2.3-1.1-5-1.8-7.8-1.8
			c-9.2,0-16.6,6.6-16.6,14.7c0,1.6,0.3,3.1,0.8,4.6c-2.6,2.6-4.2,6-4.2,9.7c0,1.3,0.2,2.5,0.5,3.7c-1.5,0.4-2.9,1-4.1,1.8
			c-2.5,1.1-4.6,2.8-6.2,4.8c0,0,0,0,0,0c-1.5,0.6-3,1.2-4.4,1.9c-2.6-6.1-7.6-10.5-13.6-11.5c-3.1-2.8-6.9-4.4-11.1-4.4
			c-4,0-7.6,1.5-10.6,4c-2.8-2-6-3.2-9.5-3.2c-9.5,0-17.3,8.5-18.2,19.4c-1.7-0.6-3.5-0.9-5.3-0.9c-5.6,0-10.6,3-14,7.6
			c-0.9,0-1.9-0.1-2.8-0.1c-2.9,0-5.8,0.2-8.5,0.7c-3.2-6.4-9.1-10.7-15.8-10.7c-7.7,0-14.2,5.5-16.9,13.4
			c-2.9-7.4-9.2-12.6-16.6-12.6c-5.6,0-10.6,2.9-13.9,7.6c-2.2-1.1-4.6-1.7-7.1-1.7c-7.5,0-14,5.4-16.8,13c-2.7-1.9-5.8-2.9-9.2-2.9
			c-6.8,0-12.7,4.3-15.8,10.8c-1.3-0.7-2.8-1.1-4.3-1.1c-5.9,0-10.7,5.6-10.7,12.5c0,6.9,4.8,12.5,10.7,12.5c1.8,0,3.5-0.5,5-1.4
			c0.1,0.1,0.2,0.2,0.2,0.3c1.4,4,4.5,7,8.3,7.7c2.1,0.9,4.3,1.5,6.6,1.5c3.3,0,6.3-1,9-2.8c1.3,5.2,5.4,9.1,10.3,9.1
			c0.8,0,1.5-0.1,2.3-0.3c2.3,1.1,4.9,1.8,7.6,1.8c2.3,0,4.5-0.5,6.5-1.3c1.9,2,4.4,3.2,7.1,3.2c3.4,0,6.4-1.9,8.4-4.8
			c4.4,7.9,16.1,13.7,30.2,14.4c1.8,3.8,5.3,6.3,9.3,6.3c3.6,0,6.7-2,8.7-5.2c1,1.1,2.1,2.1,3.4,3.1c0.8,6,5.2,10.5,10.6,10.5
			c2.9,0,5.5-1.3,7.4-3.5l0.3,0c1.6,4.5,5.4,7.7,9.9,7.7c1.3,0,2.5-0.3,3.7-0.8c6.3,4.3,15.5,7.1,25.7,7.1
			c13.5,0,25.2-4.8,30.9-11.8c0.8,0,1.6-0.1,2.3-0.2c2.1,0.9,4.5,1.5,7,1.5c6.9,0,12.8-3.9,15.3-9.3c0.4-0.3,0.8-0.6,1.2-1
			c0.9,0.1,1.8,0.3,2.8,0.3c1.4,0,2.8-0.2,4.2-0.5c1.8,3.8,5.3,6.3,9.3,6.3c4.3,0,8-3,9.7-7.3c0.9,0.1,1.9,0.2,2.8,0.2
			c3.2,0,6.1-0.8,8.6-2.2c1.9,2.1,4.5,3.4,7.3,3.4c4.5,0,8.4-3.3,10-8c0.4,0,0.9,0.1,1.3,0.1c1.1,0,2.2-0.2,3.3-0.4
			c1.8,1.6,4,2.5,6.4,2.5c4.4,0,8.2-3.1,9.8-7.6c2.5,1.4,5.5,2.2,8.6,2.2c6.4,0,12-3.3,14.8-8.2c1.9,0.7,4,1.1,6.2,1.1
			c9.2,0,16.6-6.8,16.6-15.1c0-1-0.1-1.9-0.3-2.9c1.3-2.1,2-4.6,2-7.2c0-4.9-2.5-9.2-6.5-11.9c0.4-1.3,0.6-2.6,0.6-4
			c0-8.3-7.4-15.1-16.6-15.1c-0.8,0-1.6,0.1-2.4,0.2c0.3-1.1,0.5-2.3,0.5-3.5c0-8.1-7.4-14.7-16.6-14.7c-0.3,0-0.5,0-0.8,0
			c-1.8-3.8-5.3-6.3-9.3-6.3c-1.5,0-3,0.4-4.3,1.1c-4.1-7-14-12.3-26.1-13.8c0-0.3,0.1-0.5,0.1-0.8
			C289.8,210.7,282.4,204.1,273.2,204.1L273.2,204.1z M314.9,258.8c0.6,1.3,1.5,2.5,2.5,3.6c-0.9-0.1-1.9-0.2-2.8-0.3
			c0.2-1,0.3-2,0.3-3.1C314.9,259,314.9,258.9,314.9,258.8L314.9,258.8z M278.4,261.8c1.2,0.1,2.5,0.2,3.8,0.2
			c0.2,0.7,0.4,1.4,0.7,2c-1.4-0.7-3-1.3-4.6-1.8C278.3,262,278.3,261.9,278.4,261.8L278.4,261.8z"/>
		
			<linearGradient id="SVGID_6_" gradientUnits="userSpaceOnUse" x1="-116.4202" y1="672.1672" x2="-115.4202" y2="672.1672" gradientTransform="matrix(202.9375 0 0 -147.5938 23794.6621 99485.7031)">
			<stop  offset="0" style="stop-color:#563B09"/>
			<stop  offset="1" style="stop-color:#291D04"/>
		</linearGradient>
		<path sketch:type="MSShapeGroup" class="st16" d="M273.6,204.2c-4,0-7.7,1.3-10.6,3.4c-2.3-1.1-5-1.8-7.8-1.8
			c-1.4,0-2.7,0.2-4,0.5c2.9,2.2,5.7,4.6,8.2,6.9c11.3,1.2,20.1,10.3,20.1,21.2c0,2.4-0.4,4.7-1.2,6.8c1.6,5,2.5,10.2,2.5,15.4
			c0,0,0,0,0,0.1c4.5,3.9,7.2,9.5,7.2,15.6c0,11.7-10,21.2-22.4,21.4c-0.4,0.4-0.8,0.9-1.2,1.3c1,2.1,1.5,4.5,1.5,6.8
			c0,11.8-12.8,21.4-28.7,21.4c-1.4,0-2.8-0.1-4.2-0.2c-2.4,10.3-16.8,18.3-34.3,18.3c-6.1,0-11.8-1-16.8-2.7
			c-3.3,3.8-8,6.6-13.5,7.7c6.1,3.3,14.1,5.3,22.8,5.3c13.5,0,25.2-4.8,30.9-11.8c0.8,0,1.6-0.1,2.3-0.2c2.1,0.9,4.5,1.5,7,1.5
			c6.9,0,12.8-3.9,15.3-9.3c0.4-0.3,0.8-0.6,1.2-1c0.9,0.1,1.8,0.3,2.8,0.3c1.4,0,2.8-0.2,4.2-0.5c1.8,3.8,5.3,6.3,9.3,6.3
			c4.3,0,8-3,9.7-7.3c0.9,0.1,1.9,0.2,2.8,0.2c3.2,0,6.1-0.8,8.6-2.2c1.9,2.1,4.5,3.4,7.3,3.4c4.5,0,8.4-3.3,10-8
			c0.4,0,0.9,0.1,1.3,0.1c1.1,0,2.2-0.2,3.3-0.4c1.8,1.6,4,2.5,6.4,2.5c4.4,0,8.2-3.1,9.8-7.6c2.5,1.4,5.5,2.2,8.6,2.2
			c6.4,0,12-3.3,14.8-8.2c1.9,0.7,4,1.1,6.2,1.1c9.2,0,16.6-6.8,16.6-15.1c0-1-0.1-1.9-0.3-2.9c1.3-2.1,2-4.6,2-7.2
			c0-4.9-2.5-9.2-6.5-11.9c0.4-1.3,0.6-2.6,0.6-4c0-8.3-7.4-15.1-16.6-15.1c-0.8,0-1.6,0.1-2.4,0.2c0.3-1.1,0.5-2.3,0.5-3.5
			c0-8.1-7.4-14.7-16.6-14.7c-0.3,0-0.5,0-0.8,0c-1.8-3.8-5.3-6.3-9.3-6.3c-1.5,0-3,0.4-4.3,1.1c-4.1-7-14-12.3-26.1-13.8
			c0-0.3,0.1-0.5,0.1-0.8C290.2,210.8,282.8,204.2,273.6,204.2L273.6,204.2z M315.4,258.9c0.6,1.3,1.5,2.5,2.5,3.6
			c-0.9-0.1-1.9-0.2-2.8-0.3c0.2-1,0.3-2,0.3-3.1C315.4,259.1,315.4,259,315.4,258.9L315.4,258.9z"/>
		<path sketch:type="MSShapeGroup" class="st17" d="M161.4,318.5c1.5,0,2.8,0.4,4,1.1h0.1c4,0,7.3,3.2,7.5,7.1c0,0.1,0,0.3,0,0.4
			c0,1.1-0.2,2.1-0.7,3.1c0.8,1.2,1.3,2.6,1.3,4.2c0,0.1,0,0.3,0,0.4c-0.2,4-3.5,7.1-7.5,7.1c-0.4,0-0.8,0-1.2-0.1
			c-1.2,0.8-2.6,1.2-4.1,1.2c-1.5,0-2.8-0.4-4-1.1c-0.1,0-0.3,0-0.4,0c-4.2,0-7.5-3.4-7.5-7.5c0-1.1,0.2-2.1,0.7-3.1
			c-0.8-1.2-1.3-2.6-1.3-4.2c0-4.2,3.4-7.5,7.5-7.5c0.5,0,1,0,1.5,0.1C158.4,319,159.9,318.5,161.4,318.5L161.4,318.5z"/>
		<path sketch:type="MSShapeGroup" class="st18" d="M163.3,320.9c1.5,0,2.8,0.4,4,1.1h0.1c4,0,7.3,3.2,7.5,7.1c0,0.1,0,0.3,0,0.4
			c0,1.1-0.2,2.1-0.7,3.1c0.8,1.2,1.3,2.6,1.3,4.2c0,0.1,0,0.3,0,0.4c-0.2,4-3.5,7.1-7.5,7.1c-0.4,0-0.8,0-1.2-0.1
			c-1.2,0.8-2.6,1.2-4.1,1.2c-1.5,0-2.8-0.4-4-1.1c-0.1,0-0.3,0-0.4,0c-4.2,0-7.5-3.4-7.5-7.5c0-1.1,0.2-2.1,0.7-3.1
			c-0.8-1.2-1.3-2.6-1.3-4.2c0-4.2,3.4-7.5,7.5-7.5c0.5,0,1,0,1.5,0.1C160.3,321.4,161.8,320.9,163.3,320.9L163.3,320.9z"/>
		<path sketch:type="MSShapeGroup" class="st17" d="M244.5,318c1.5,0,2.8,0.4,4,1.1h0.1c4,0,7.3,3.2,7.5,7.1c0,0.1,0,0.3,0,0.4
			c0,1.1-0.2,2.1-0.7,3.1c0.8,1.2,1.3,2.6,1.3,4.2c0,0.1,0,0.3,0,0.4c-0.2,4-3.5,7.1-7.5,7.1c-0.4,0-0.8,0-1.2-0.1
			c-1.2,0.8-2.6,1.2-4.1,1.2c-1.5,0-2.8-0.4-4-1.1c-0.1,0-0.3,0-0.4,0c-4.2,0-7.5-3.4-7.5-7.5c0-1.1,0.2-2.1,0.7-3.1
			c-0.8-1.2-1.3-2.6-1.3-4.2c0-4.2,3.4-7.5,7.5-7.5c0.5,0,1,0,1.5,0.1C241.5,318.5,243,318,244.5,318L244.5,318z"/>
		<path sketch:type="MSShapeGroup" class="st18" d="M246.4,320.4c1.5,0,2.8,0.4,4,1.1h0.1c4,0,7.3,3.2,7.5,7.1c0,0.1,0,0.3,0,0.4
			c0,1.1-0.2,2.1-0.7,3.1c0.8,1.2,1.3,2.6,1.3,4.2c0,0.1,0,0.3,0,0.4c-0.2,4-3.5,7.1-7.5,7.1c-0.4,0-0.8,0-1.2-0.1
			c-1.2,0.8-2.6,1.2-4.1,1.2c-1.5,0-2.8-0.4-4-1.1c-0.1,0-0.3,0-0.4,0c-4.2,0-7.5-3.4-7.5-7.5c0-1.1,0.2-2.1,0.7-3.1
			c-0.8-1.2-1.3-2.6-1.3-4.2c0-4.2,3.4-7.5,7.5-7.5c0.5,0,1,0,1.5,0.1C243.4,320.9,244.9,320.4,246.4,320.4L246.4,320.4z"/>
		<path sketch:type="MSShapeGroup" class="st19" d="M353.5,271.4c2.2,0,4.3,0.7,6.1,1.7h0.2c6.2,0,11.3,4.9,11.6,11
			c0,0.2,0,0.4,0,0.6c0,1.7-0.4,3.3-1,4.7c1.2,1.8,2,4.1,2,6.4c0,0.2,0,0.4,0,0.6c-0.3,6.1-5.4,11-11.6,11c-0.6,0-1.2,0-1.8-0.1
			c-1.8,1.2-4,1.9-6.3,1.9c-2.3,0-4.4-0.6-6.2-1.8c-0.2,0-0.5,0-0.7,0c-6.4,0-11.6-5.2-11.6-11.6c0-1.7,0.4-3.3,1-4.7
			c-1.2-1.8-2-4-2-6.4c0-6.4,5.2-11.6,11.6-11.6c0.8,0,1.5,0.1,2.3,0.2C348.8,272.1,351.1,271.4,353.5,271.4L353.5,271.4z"/>
		<path sketch:type="MSShapeGroup" class="st18" d="M356.4,275.1c2.2,0,4.3,0.7,6.1,1.7h0.2c6.2,0,11.3,4.9,11.6,11
			c0,0.2,0,0.4,0,0.6c0,1.7-0.4,3.3-1,4.7c1.2,1.8,2,4.1,2,6.4c0,0.2,0,0.4,0,0.6c-0.3,6.1-5.4,11-11.6,11c-0.6,0-1.2,0-1.8-0.1
			c-1.8,1.2-4,1.9-6.3,1.9c-2.3,0-4.4-0.6-6.2-1.8c-0.2,0-0.5,0-0.7,0c-6.4,0-11.6-5.2-11.6-11.6c0-1.7,0.4-3.3,1-4.7
			c-1.2-1.8-2-4-2-6.4c0-6.4,5.2-11.6,11.6-11.6c0.8,0,1.5,0.1,2.3,0.2C351.8,275.8,354,275.1,356.4,275.1L356.4,275.1z"/>
		<path sketch:type="MSShapeGroup" class="st20" d="M303.2,250.9c1.5,0,3,0.4,4.2,1.2h0.1c4.3,0,7.8,3.3,8,7.6c0,0.1,0,0.3,0,0.4
			c0,1.2-0.3,2.2-0.7,3.2c0.9,1.3,1.3,2.8,1.3,4.4c0,0.1,0,0.3,0,0.4c-0.2,4.2-3.7,7.6-8,7.6c-0.4,0-0.8,0-1.2-0.1
			c-1.3,0.8-2.8,1.3-4.4,1.3c-1.6,0-3-0.4-4.2-1.2c-0.2,0-0.3,0-0.5,0c-4.4,0-8-3.6-8-8c0-1.2,0.3-2.3,0.7-3.3
			c-0.9-1.3-1.4-2.8-1.4-4.4c0-4.4,3.6-8,8-8c0.5,0,1.1,0.1,1.6,0.2C300,251.4,301.6,250.9,303.2,250.9L303.2,250.9z"/>
		<path sketch:type="MSShapeGroup" class="st21" d="M306.9,255.2c1.5,0,3,0.4,4.2,1.2h0.1c4.3,0,7.8,3.3,8,7.6c0,0.1,0,0.3,0,0.4
			c0,1.2-0.3,2.2-0.7,3.2c0.9,1.3,1.3,2.8,1.3,4.4c0,0.1,0,0.3,0,0.4c-0.2,4.2-3.7,7.6-8,7.6c-0.4,0-0.8,0-1.2-0.1
			c-1.3,0.8-2.8,1.3-4.4,1.3c-1.6,0-3-0.4-4.2-1.2c-0.2,0-0.3,0-0.5,0c-4.4,0-8-3.6-8-8c0-1.2,0.3-2.3,0.7-3.3
			c-0.9-1.3-1.4-2.8-1.4-4.4c0-4.4,3.6-8,8-8c0.5,0,1.1,0.1,1.6,0.2C303.7,255.7,305.3,255.2,306.9,255.2L306.9,255.2z"/>
		<path sketch:type="MSShapeGroup" class="st17" d="M31.5,284.4c1.5,0,2.8,0.4,4,1.1h0.1c4,0,7.3,3.2,7.5,7.1c0,0.1,0,0.3,0,0.4
			c0,1.1-0.2,2.1-0.7,3.1c0.8,1.2,1.3,2.6,1.3,4.2c0,0.1,0,0.3,0,0.4c-0.2,4-3.5,7.1-7.5,7.1c-0.4,0-0.8,0-1.2-0.1
			c-1.2,0.8-2.6,1.2-4.1,1.2c-1.5,0-2.8-0.4-4-1.1c-0.1,0-0.3,0-0.4,0c-4.2,0-7.5-3.4-7.5-7.5c0-1.1,0.2-2.1,0.7-3.1
			c-0.8-1.2-1.3-2.6-1.3-4.2c0-4.2,3.4-7.5,7.5-7.5c0.5,0,1,0,1.5,0.1C28.5,284.9,29.9,284.4,31.5,284.4L31.5,284.4z"/>
		<path sketch:type="MSShapeGroup" class="st18" d="M33.4,286.9c1.5,0,2.8,0.4,4,1.1h0.1c4,0,7.3,3.2,7.5,7.1c0,0.1,0,0.3,0,0.4
			c0,1.1-0.2,2.1-0.7,3.1c0.8,1.2,1.3,2.6,1.3,4.2c0,0.1,0,0.3,0,0.4c-0.2,4-3.5,7.1-7.5,7.1c-0.4,0-0.8,0-1.2-0.1
			c-1.2,0.8-2.6,1.2-4.1,1.2c-1.5,0-2.8-0.4-4-1.1c-0.1,0-0.3,0-0.4,0c-4.2,0-7.5-3.4-7.5-7.5c0-1.1,0.2-2.1,0.7-3.1
			c-0.8-1.2-1.3-2.6-1.3-4.2c0-4.2,3.4-7.5,7.5-7.5c0.5,0,1,0,1.5,0.1C30.4,287.3,31.8,286.9,33.4,286.9L33.4,286.9z"/>
		<path sketch:type="MSShapeGroup" class="st17" d="M108.7,289.5c1.5,0,2.8,0.4,4,1.1h0.1c4,0,7.3,3.2,7.5,7.1c0,0.1,0,0.3,0,0.4
			c0,1.1-0.2,2.1-0.7,3.1c0.8,1.2,1.3,2.6,1.3,4.2c0,0.1,0,0.3,0,0.4c-0.2,4-3.5,7.1-7.5,7.1c-0.4,0-0.8,0-1.2-0.1
			c-1.2,0.8-2.6,1.2-4.1,1.2c-1.5,0-2.8-0.4-4-1.1c-0.1,0-0.3,0-0.4,0c-4.2,0-7.5-3.4-7.5-7.5c0-1.1,0.2-2.1,0.7-3.1
			c-0.8-1.2-1.3-2.6-1.3-4.2c0-4.2,3.4-7.5,7.5-7.5c0.5,0,1,0,1.5,0.1C105.7,290,107.1,289.5,108.7,289.5L108.7,289.5z"/>
		<path sketch:type="MSShapeGroup" class="st22" d="M110.6,291.9c1.5,0,2.8,0.4,4,1.1h0.1c4,0,7.3,3.2,7.5,7.1c0,0.1,0,0.3,0,0.4
			c0,1.1-0.2,2.1-0.7,3.1c0.8,1.2,1.3,2.6,1.3,4.2c0,0.1,0,0.3,0,0.4c-0.2,4-3.5,7.1-7.5,7.1c-0.4,0-0.8,0-1.2-0.1
			c-1.2,0.8-2.6,1.2-4.1,1.2c-1.5,0-2.8-0.4-4-1.1c-0.1,0-0.3,0-0.4,0c-4.2,0-7.5-3.4-7.5-7.5c0-1.1,0.2-2.1,0.7-3.1
			c-0.8-1.2-1.3-2.6-1.3-4.2c0-4.2,3.4-7.5,7.5-7.5c0.5,0,1,0,1.5,0.1C107.6,292.4,109,291.9,110.6,291.9L110.6,291.9z"/>
		<path sketch:type="MSShapeGroup" class="st23" d="M273,280.1c1.5,0,2.8,0.3,4,0.7h0.1c4.1,0,7.4,2,7.6,4.5c0,0.1,0,0.2,0,0.2
			c0,0.7-0.2,1.3-0.7,1.9c0.8,0.8,1.3,1.6,1.3,2.6c0,0.1,0,0.2,0,0.2c-0.2,2.5-3.5,4.5-7.6,4.5c-0.4,0-0.8,0-1.2-0.1
			c-1.2,0.5-2.6,0.8-4.1,0.8c-1.5,0-2.9-0.3-4-0.7c-0.1,0-0.3,0-0.4,0c-4.2,0-7.6-2.1-7.6-4.7c0-0.7,0.2-1.3,0.7-1.9
			c-0.8-0.7-1.3-1.6-1.3-2.6c0-2.6,3.4-4.7,7.6-4.7c0.5,0,1,0,1.5,0.1C270,280.4,271.5,280.1,273,280.1L273,280.1z"/>
		<path sketch:type="MSShapeGroup" class="st22" d="M275,281.7c1.5,0,2.8,0.3,4,0.7h0.1c4.1,0,7.4,2,7.6,4.5c0,0.1,0,0.2,0,0.2
			c0,0.7-0.2,1.3-0.7,1.9c0.8,0.8,1.3,1.6,1.3,2.6c0,0.1,0,0.2,0,0.2c-0.2,2.5-3.5,4.5-7.6,4.5c-0.4,0-0.8,0-1.2-0.1
			c-1.2,0.5-2.6,0.8-4.1,0.8c-1.5,0-2.9-0.3-4-0.7c-0.1,0-0.3,0-0.4,0c-4.2,0-7.6-2.1-7.6-4.7c0-0.7,0.2-1.3,0.7-1.9
			c-0.8-0.7-1.3-1.6-1.3-2.6c0-2.6,3.4-4.7,7.6-4.7c0.5,0,1,0,1.5,0.1C271.9,281.9,273.4,281.7,275,281.7L275,281.7z"/>
		<path sketch:type="MSShapeGroup" class="st23" d="M81.8,250c1.5,0,2.8,0.3,4,0.7h0.1c4.1,0,7.4,2,7.6,4.5c0,0.1,0,0.2,0,0.2
			c0,0.7-0.2,1.3-0.7,1.9c0.8,0.8,1.3,1.6,1.3,2.6c0,0.1,0,0.2,0,0.2c-0.2,2.5-3.5,4.5-7.6,4.5c-0.4,0-0.8,0-1.2-0.1
			c-1.2,0.5-2.6,0.8-4.1,0.8c-1.5,0-2.9-0.3-4-0.7c-0.1,0-0.3,0-0.4,0c-4.2,0-7.6-2.1-7.6-4.7c0-0.7,0.2-1.3,0.7-1.9
			c-0.8-0.7-1.3-1.6-1.3-2.6c0-2.6,3.4-4.7,7.6-4.7c0.5,0,1,0,1.5,0.1C78.7,250.3,80.2,250,81.8,250L81.8,250z"/>
		<path sketch:type="MSShapeGroup" class="st22" d="M83.7,251.5c1.5,0,2.8,0.3,4,0.7h0.1c4.1,0,7.4,2,7.6,4.5c0,0.1,0,0.2,0,0.2
			c0,0.7-0.2,1.3-0.7,1.9c0.8,0.8,1.3,1.6,1.3,2.6c0,0.1,0,0.2,0,0.2c-0.2,2.5-3.5,4.5-7.6,4.5c-0.4,0-0.8,0-1.2-0.1
			c-1.2,0.5-2.6,0.8-4.1,0.8c-1.5,0-2.9-0.3-4-0.7c-0.1,0-0.3,0-0.4,0c-4.2,0-7.6-2.1-7.6-4.7c0-0.7,0.2-1.3,0.7-1.9
			c-0.8-0.7-1.3-1.6-1.3-2.6c0-2.6,3.4-4.7,7.6-4.7c0.5,0,1,0,1.5,0.1C80.7,251.8,82.1,251.5,83.7,251.5L83.7,251.5z"/>
		<path sketch:type="MSShapeGroup" class="st24" d="M206.6,266.5c2.3,0,4.4,0.4,6.1,1.1h0.2c6.3,0,11.4,3.1,11.7,6.9
			c0,0.1,0,0.3,0,0.4c0,1.1-0.4,2-1,3c1.2,1.2,2,2.5,2,4c0,0.1,0,0.3,0,0.4c-0.3,3.8-5.4,6.9-11.7,6.9c-0.6,0-1.2,0-1.8-0.1
			c-1.8,0.7-4,1.2-6.4,1.2c-2.3,0-4.4-0.4-6.2-1.1c-0.2,0-0.5,0-0.7,0c-6.5,0-11.7-3.3-11.7-7.3c0-1.1,0.4-2.1,1-3
			c-1.2-1.2-2-2.5-2-4c0-4,5.2-7.3,11.7-7.3c0.8,0,1.6,0,2.3,0.1C201.9,267,204.2,266.5,206.6,266.5L206.6,266.5z"/>
		<path sketch:type="MSShapeGroup" class="st22" d="M209.5,268.8c2.3,0,4.4,0.4,6.1,1.1h0.2c6.3,0,11.4,3.1,11.7,6.9
			c0,0.1,0,0.3,0,0.4c0,1.1-0.4,2-1,3c1.2,1.2,2,2.5,2,4c0,0.1,0,0.3,0,0.4c-0.3,3.8-5.4,6.9-11.7,6.9c-0.6,0-1.2,0-1.8-0.1
			c-1.8,0.7-4,1.2-6.4,1.2c-2.3,0-4.4-0.4-6.2-1.1c-0.2,0-0.5,0-0.7,0c-6.5,0-11.7-3.3-11.7-7.3c0-1.1,0.4-2.1,1-3
			c-1.2-1.2-2-2.5-2-4c0-4,5.2-7.3,11.7-7.3c0.8,0,1.6,0,2.3,0.1C204.9,269.3,207.1,268.8,209.5,268.8L209.5,268.8z"/>
	</g>
</g>
</svg>
